<?xml version="1.0" encoding="UTF-8" standalone="no"?><!DOCTYPE svg PUBLIC "-//W3C//DTD SVG 1.1//EN" "http://www.w3.org/Graphics/SVG/1.1/DTD/svg11.dtd"><svg width="100%" height="100%" viewBox="0 0 41 41" version="1.1" xmlns="http://www.w3.org/2000/svg" xmlns:xlink="http://www.w3.org/1999/xlink" xml:space="preserve" xmlns:serif="http://www.serif.com/" style="fill-rule:evenodd;clip-rule:evenodd;stroke-linejoin:round;stroke-miterlimit:2;"><g><path d="M40.32,10.08c0,-5.563 -4.517,-10.08 -10.08,-10.08l-20.16,0c-5.563,0 -10.08,4.517 -10.08,10.08l0,20.16c0,5.563 4.517,10.08 10.08,10.08l20.16,0c5.563,0 10.08,-4.517 10.08,-10.08l0,-20.16Z" style="fill:#fff;"/><g><path d="M18.123,27.089c-1.306,0.967 -2.922,1.538 -4.67,1.538c-4.337,0 -7.859,-3.521 -7.859,-7.859c0,-4.338 3.522,-7.859 7.859,-7.859c0.218,0 0.435,0.008 0.648,0.026c1.443,-1.743 3.622,-2.855 6.059,-2.855c2.437,0 4.616,1.112 6.059,2.855c0.213,-0.018 0.43,-0.026 0.648,-0.026c4.337,0 7.859,3.521 7.859,7.859c0,4.338 -3.522,7.859 -7.859,7.859c-1.748,0 -3.364,-0.571 -4.67,-1.538c0.224,-0.82 0.537,-1.544 0.933,-2.171c0.991,0.892 2.301,1.435 3.737,1.435c3.082,0 5.585,-2.503 5.585,-5.585c0,-2.856 -2.148,-5.214 -4.916,-5.545c0.313,0.846 0.483,1.762 0.483,2.716c0,0.258 -0.012,0.513 -0.036,0.764c-0.833,0.083 -1.628,0.243 -2.377,0.48c0.091,-0.4 0.139,-0.816 0.139,-1.244c0,-3.082 -2.502,-5.585 -5.585,-5.585c-3.083,0 -5.585,2.503 -5.585,5.585c0,0.428 0.048,0.844 0.139,1.244c-0.749,-0.237 -1.544,-0.397 -2.377,-0.48c-0.024,-0.251 -0.036,-0.506 -0.036,-0.764c0,-0.954 0.17,-1.87 0.483,-2.716c-2.768,0.331 -4.916,2.689 -4.916,5.545c0,3.082 2.503,5.585 5.585,5.585c1.436,0 2.746,-0.543 3.737,-1.435c0.396,0.627 0.709,1.351 0.933,2.171Zm0.9,-3.523c0.256,0.39 0.488,0.811 0.694,1.261c0.079,0.174 0.252,0.285 0.443,0.285c0.191,0 0.364,-0.111 0.443,-0.285c0.206,-0.45 0.438,-0.871 0.694,-1.261l0,1.164l1.019,-0.726c0.043,0.06 0.087,0.12 0.132,0.178c-0.437,0.643 -0.793,1.382 -1.061,2.218c-0.03,-0.029 -0.06,-0.059 -0.09,-0.089l0,0.384c-0.026,0.09 -0.051,0.181 -0.074,0.273l-2.126,0c-0.023,-0.092 -0.048,-0.183 -0.074,-0.273l0,-0.384c-0.03,0.03 -0.06,0.06 -0.09,0.089c-0.268,-0.836 -0.624,-1.575 -1.061,-2.218c0.045,-0.058 0.089,-0.118 0.132,-0.178l1.019,0.726l0,-1.164Zm0,-1.606l0,-2.244c0,-0.448 -0.364,-0.812 -0.812,-0.812c-0.259,0 -0.155,-0.569 -0.155,-1.137c0,-0.569 -0.104,-1.137 0.155,-1.137c0.739,0 1.418,0.26 1.949,0.693c0.531,-0.433 1.21,-0.693 1.949,-0.693c0.259,0 -0.001,0.568 -0.001,1.137c0,0.568 0.26,1.137 0.001,1.137c-0.448,0 -0.812,0.364 -0.812,0.812l0,2.244c-0.421,0.478 -0.802,1.01 -1.137,1.597c-0.335,-0.587 -0.716,-1.119 -1.137,-1.597Zm8.779,-2.256c-0.273,0.405 -1.824,0.538 -2.378,0.574c0.742,-0.28 1.538,-0.471 2.378,-0.574Zm-15.303,-0.002c0.765,0.093 1.492,0.258 2.176,0.496c-0.69,-0.026 -2.09,-0.123 -2.176,-0.496l0,0Z" style="fill:#405084;"/><path d="M23.186,15.993c0.979,0 1.774,0.795 1.774,1.774c0,0.979 -0.795,1.774 -1.774,1.774c-0.98,0 -1.775,-0.795 -1.775,-1.774c0,-0.979 0.795,-1.774 1.775,-1.774Zm0,1.013c0.419,0 0.76,0.341 0.76,0.761c0,0.42 -0.341,0.76 -0.76,0.76c-0.42,0 -0.761,-0.34 -0.761,-0.76c0,-0.42 0.341,-0.761 0.761,-0.761Z" style="fill:#405084;"/><path d="M17.134,15.993c0.98,0 1.775,0.795 1.775,1.774c0,0.979 -0.795,1.774 -1.775,1.774c-0.979,0 -1.774,-0.795 -1.774,-1.774c0,-0.979 0.795,-1.774 1.774,-1.774Zm0,1.013c0.42,0 0.761,0.341 0.761,0.761c0,0.42 -0.341,0.76 -0.761,0.76c-0.419,0 -0.76,-0.34 -0.76,-0.76c0,-0.42 0.341,-0.761 0.76,-0.761Z" style="fill:#405084;"/><path d="M20.16,30.222l-1.137,0.018c-0.048,-3.018 -1.101,-5.069 -2.329,-6.731c-2.385,-3.226 -5.709,-4.384 -5.709,-4.384c2.959,0 5.5,0.934 7.328,2.787c0.737,0.748 1.362,1.651 1.847,2.713c0.485,-1.062 1.11,-1.965 1.847,-2.713c1.828,-1.853 4.369,-2.787 7.328,-2.787c0,0 -3.109,1.142 -5.709,4.384c-1.292,1.612 -2.281,3.713 -2.329,6.731l-1.137,-0.018Z" style="fill:#1fbba3;"/></g></g></svg>