<?xml version="1.0" encoding="UTF-8" standalone="no"?><!DOCTYPE svg PUBLIC "-//W3C//DTD SVG 1.1//EN" "http://www.w3.org/Graphics/SVG/1.1/DTD/svg11.dtd"><svg width="100%" height="100%" viewBox="0 0 233 70" version="1.1" xmlns="http://www.w3.org/2000/svg" xmlns:xlink="http://www.w3.org/1999/xlink" xml:space="preserve" xmlns:serif="http://www.serif.com/" style="fill-rule:evenodd;clip-rule:evenodd;stroke-linejoin:round;stroke-miterlimit:2;"><g><g><g><g><path d="M33.658,45.694c-3.508,2.597 -7.848,4.133 -12.544,4.133c-11.653,0 -21.114,-9.461 -21.114,-21.114c0,-11.653 9.461,-21.114 21.114,-21.114c0.586,0 1.167,0.024 1.742,0.071c3.874,-4.684 9.729,-7.67 16.276,-7.67c6.546,0 12.401,2.986 16.276,7.67c0.574,-0.047 1.155,-0.071 1.741,-0.071c11.653,0 21.114,9.461 21.114,21.114c0,11.653 -9.461,21.114 -21.114,21.114c-4.696,0 -9.036,-1.536 -12.544,-4.133c0.602,-2.203 1.442,-4.148 2.507,-5.833c2.659,2.396 6.179,3.856 10.037,3.856c8.281,0 15.005,-6.723 15.005,-15.004c0,-7.673 -5.772,-14.008 -13.206,-14.898c0.839,2.276 1.298,4.734 1.298,7.299c0,0.692 -0.034,1.376 -0.099,2.052c-2.238,0.221 -4.372,0.652 -6.385,1.289c0.245,-1.074 0.374,-2.193 0.374,-3.341c0,-8.281 -6.723,-15.004 -15.004,-15.004c-8.282,0 -15.005,6.723 -15.005,15.004c0,1.148 0.129,2.267 0.374,3.341c-2.013,-0.637 -4.147,-1.068 -6.385,-1.289c-0.065,-0.676 -0.098,-1.36 -0.098,-2.052c0,-2.565 0.458,-5.023 1.297,-7.299c-7.434,0.89 -13.205,7.225 -13.205,14.898c0,8.281 6.723,15.004 15.004,15.004c3.858,0 7.378,-1.46 10.038,-3.856c1.064,1.685 1.904,3.63 2.506,5.833Zm2.419,-9.465c0.688,1.049 1.311,2.179 1.863,3.389c0.213,0.467 0.679,0.766 1.192,0.766c0.512,0 0.978,-0.299 1.191,-0.766c0.552,-1.21 1.175,-2.34 1.863,-3.389l0,3.129l2.737,-1.951c0.115,0.162 0.233,0.321 0.355,0.478c-1.173,1.728 -2.131,3.713 -2.85,5.958c-0.082,-0.079 -0.162,-0.158 -0.242,-0.238l0,1.031c-0.069,0.241 -0.136,0.485 -0.2,0.732l-5.709,0c-0.064,-0.247 -0.131,-0.491 -0.2,-0.732l0,-1.031c-0.08,0.08 -0.16,0.159 -0.241,0.238c-0.72,-2.245 -1.678,-4.23 -2.851,-5.958c0.122,-0.157 0.24,-0.316 0.356,-0.478l2.736,1.951l0,-3.129Zm0,-4.314l0,-6.028c0,-1.205 -0.977,-2.182 -2.182,-2.182c-0.696,0 -0.415,-1.527 -0.415,-3.055c0,-1.527 -0.281,-3.054 0.415,-3.054c1.986,0 3.809,0.698 5.237,1.862c1.427,-1.164 3.25,-1.862 5.236,-1.862c0.696,0 -0.004,1.527 -0.004,3.054c0,1.528 0.7,3.055 0.004,3.055c-1.205,0 -2.182,0.977 -2.182,2.182l0,6.028c-1.13,1.286 -2.154,2.715 -3.054,4.29c-0.901,-1.575 -1.925,-3.004 -3.055,-4.29Zm23.585,-6.061c-0.733,1.088 -4.9,1.447 -6.387,1.542c1.992,-0.75 4.13,-1.264 6.387,-1.542Zm-41.11,-0.006c2.053,0.25 4.008,0.694 5.846,1.334c-1.856,-0.069 -5.616,-0.331 -5.846,-1.334l0,0Z" style="fill:#405084;"/><path d="M47.26,15.884c2.631,0 4.766,2.136 4.766,4.766c0,2.631 -2.135,4.767 -4.766,4.767c-2.631,0 -4.767,-2.136 -4.767,-4.767c0,-2.63 2.136,-4.766 4.767,-4.766Zm0,2.723c1.128,0 2.043,0.916 2.043,2.043c0,1.128 -0.915,2.044 -2.043,2.044c-1.128,0 -2.044,-0.916 -2.044,-2.044c0,-1.127 0.916,-2.043 2.044,-2.043Z" style="fill:#405084;"/><path d="M31.003,15.884c2.631,0 4.767,2.136 4.767,4.766c0,2.631 -2.136,4.767 -4.767,4.767c-2.63,0 -4.766,-2.136 -4.766,-4.767c0,-2.63 2.136,-4.766 4.766,-4.766Zm0,2.723c1.128,0 2.044,0.916 2.044,2.043c0,1.128 -0.916,2.044 -2.044,2.044c-1.127,0 -2.043,-0.916 -2.043,-2.044c0,-1.127 0.916,-2.043 2.043,-2.043Z" style="fill:#405084;"/><path d="M39.132,54.11l-3.055,0.049c-0.129,-8.107 -2.958,-13.618 -6.258,-18.083c-6.405,-8.665 -15.335,-11.777 -15.335,-11.777c7.95,0.001 14.775,2.508 19.685,7.487c1.982,2.01 3.661,4.434 4.963,7.289c1.301,-2.855 2.981,-5.279 4.962,-7.289c4.91,-4.979 11.736,-7.486 19.685,-7.487c0,0 -8.352,3.067 -15.335,11.777c-3.473,4.332 -6.128,9.976 -6.258,18.083l-3.054,-0.049Z" style="fill:#1fbba3;"/></g><g><path d="M84.91,18.253c0.046,0.978 0.302,1.865 0.769,2.661c0.468,0.797 1.106,1.473 1.915,2.03c0.809,0.558 1.76,0.99 2.854,1.297c1.094,0.307 2.291,0.461 3.59,0.461c1.321,0 2.512,-0.16 3.572,-0.478c1.059,-0.319 1.965,-0.773 2.717,-1.365c0.753,-0.591 1.334,-1.308 1.744,-2.149c0.41,-0.842 0.615,-1.774 0.615,-2.798c0,-1.41 -0.353,-2.565 -1.06,-3.463c-0.707,-0.898 -1.59,-1.649 -2.651,-2.252c-1.06,-0.603 -2.211,-1.109 -3.454,-1.518c-1.242,-0.409 -2.394,-0.842 -3.454,-1.297c-1.06,-0.454 -1.944,-0.978 -2.651,-1.569c-0.706,-0.591 -1.06,-1.376 -1.06,-2.354c0,-0.546 0.12,-1.058 0.359,-1.535c0.239,-0.478 0.593,-0.893 1.06,-1.246c0.467,-0.352 1.042,-0.637 1.726,-0.853c0.683,-0.216 1.47,-0.324 2.358,-0.324c1.481,0 2.74,0.313 3.776,0.938c1.037,0.626 1.647,1.61 1.829,2.952l2.324,0c-0.137,-0.842 -0.444,-1.598 -0.922,-2.269c-0.479,-0.671 -1.082,-1.24 -1.811,-1.706c-0.729,-0.466 -1.555,-0.819 -2.477,-1.058c-0.923,-0.239 -1.885,-0.358 -2.887,-0.358c-1.048,0 -2.045,0.136 -2.991,0.409c-0.945,0.273 -1.776,0.671 -2.494,1.195c-0.717,0.523 -1.287,1.182 -1.708,1.978c-0.422,0.796 -0.632,1.706 -0.632,2.73c0,1.342 0.341,2.422 1.023,3.241c0.683,0.819 1.541,1.501 2.576,2.047c1.035,0.546 2.155,1.012 3.361,1.399c1.205,0.387 2.326,0.825 3.361,1.314c1.034,0.489 1.893,1.086 2.575,1.791c0.683,0.705 1.024,1.649 1.024,2.832c0,1.478 -0.54,2.558 -1.621,3.241c-1.08,0.682 -2.519,1.023 -4.316,1.023c-1.433,0 -2.581,-0.187 -3.445,-0.563c-0.865,-0.375 -1.524,-0.824 -1.979,-1.347c-0.455,-0.523 -0.762,-1.064 -0.922,-1.621c-0.159,-0.557 -0.25,-1.029 -0.272,-1.416l-2.321,0Z" style="fill:#405084;fill-rule:nonzero;"/><path d="M109.237,24.292l0,-9.724c0,-0.409 0.034,-0.949 0.102,-1.62c0.068,-0.671 0.245,-1.331 0.529,-1.979c0.284,-0.648 0.722,-1.206 1.313,-1.672c0.592,-0.466 1.422,-0.699 2.491,-0.699c0.773,0 1.37,0.17 1.791,0.512c0.421,0.341 0.734,0.762 0.939,1.262c0.204,0.5 0.324,1.023 0.358,1.569c0.034,0.546 0.051,1.024 0.051,1.433l0,10.918l2.9,0l0,-9.724c0,-0.5 0.045,-1.097 0.136,-1.791c0.091,-0.693 0.285,-1.347 0.58,-1.962c0.296,-0.614 0.723,-1.137 1.28,-1.569c0.557,-0.432 1.313,-0.648 2.269,-0.648c0.705,0 1.273,0.102 1.706,0.307c0.432,0.205 0.767,0.512 1.006,0.921c0.239,0.409 0.398,0.91 0.478,1.501c0.079,0.592 0.119,1.274 0.119,2.047l0,10.918l2.9,0l0,-11.907c0,-0.523 -0.057,-1.109 -0.17,-1.757c-0.114,-0.648 -0.359,-1.251 -0.734,-1.808c-0.375,-0.558 -0.921,-1.024 -1.638,-1.399c-0.716,-0.376 -1.666,-0.563 -2.848,-0.563c-0.342,0 -0.74,0.034 -1.195,0.102c-0.454,0.068 -0.932,0.216 -1.433,0.444c-0.5,0.227 -0.983,0.557 -1.45,0.989c-0.466,0.432 -0.87,1.001 -1.211,1.706l-0.239,0c-0.136,-0.364 -0.329,-0.734 -0.58,-1.109c-0.25,-0.375 -0.568,-0.722 -0.955,-1.04c-0.387,-0.319 -0.847,-0.58 -1.382,-0.785c-0.534,-0.205 -1.177,-0.307 -1.927,-0.307c-0.342,0 -0.751,0.04 -1.229,0.119c-0.477,0.08 -0.955,0.233 -1.433,0.461c-0.477,0.227 -0.926,0.546 -1.347,0.955c-0.421,0.409 -0.768,0.944 -1.041,1.604l-0.136,0l0,-2.764l-2.9,0l0,17.059l2.9,0Z" style="fill:#405084;fill-rule:nonzero;"/><path d="M140.552,6.858c1.661,0 2.947,0.233 3.858,0.699c0.911,0.466 1.577,1.075 1.998,1.825c0.421,0.751 0.666,1.615 0.734,2.593c0.068,0.979 0.102,1.979 0.102,3.003l0,9.314l-2.763,0l0,-1.672c-0.66,0.637 -1.501,1.143 -2.525,1.519c-1.024,0.375 -2.047,0.563 -3.071,0.563c-0.978,0 -1.842,-0.171 -2.593,-0.512c-0.75,-0.341 -1.376,-0.785 -1.876,-1.331c-0.501,-0.546 -0.876,-1.16 -1.126,-1.842c-0.25,-0.683 -0.375,-1.376 -0.375,-2.081c0,-0.728 0.136,-1.456 0.409,-2.184c0.273,-0.728 0.682,-1.382 1.228,-1.962c0.546,-0.58 1.217,-1.052 2.013,-1.416c0.796,-0.364 1.706,-0.546 2.73,-0.546c1.023,0 1.996,0.199 2.917,0.597c0.921,0.399 1.677,0.961 2.269,1.689l0,-1.467c0,-1.865 -0.28,-3.252 -0.839,-4.162c-0.56,-0.91 -1.582,-1.365 -3.066,-1.365c-0.639,0 -1.198,0.08 -1.678,0.239c-0.479,0.159 -0.907,0.381 -1.284,0.665c-0.377,0.285 -0.726,0.637 -1.045,1.058c-0.32,0.421 -0.639,0.893 -0.959,1.416l-1.751,-1.774c0.319,-0.342 0.654,-0.683 1.007,-1.024c0.353,-0.341 0.785,-0.648 1.298,-0.921c0.512,-0.273 1.121,-0.495 1.827,-0.665c0.705,-0.171 1.559,-0.256 2.561,-0.256Zm3.929,10.679c-0.114,-0.273 -0.28,-0.592 -0.497,-0.956c-0.217,-0.364 -0.497,-0.716 -0.839,-1.057c-0.343,-0.341 -0.754,-0.631 -1.233,-0.87c-0.48,-0.239 -1.051,-0.359 -1.713,-0.359c-0.662,0 -1.267,0.131 -1.815,0.393c-0.548,0.261 -1.011,0.603 -1.387,1.023c-0.377,0.421 -0.668,0.916 -0.874,1.485c-0.205,0.568 -0.308,1.16 -0.308,1.774c0,0.728 0.131,1.359 0.394,1.893c0.262,0.535 0.599,0.99 1.01,1.365c0.411,0.375 0.868,0.654 1.37,0.836c0.503,0.182 0.982,0.273 1.439,0.273c0.434,0 0.873,-0.08 1.319,-0.239c0.445,-0.159 0.867,-0.381 1.267,-0.665c0.4,-0.285 0.759,-0.62 1.079,-1.007c0.32,-0.386 0.582,-0.807 0.788,-1.262l0,-2.627Z" style="fill:#405084;fill-rule:nonzero;"/><path d="M151.338,7.233l0,17.059l2.901,0l0,-10.304c0,-0.932 0.108,-1.723 0.324,-2.371c0.216,-0.648 0.494,-1.177 0.836,-1.586c0.341,-0.41 0.716,-0.705 1.125,-0.887c0.41,-0.182 0.808,-0.273 1.195,-0.273c0.523,0 1.006,0.17 1.45,0.511c0.443,0.342 0.767,0.66 0.972,0.956l1.16,-2.116c-0.205,-0.272 -0.449,-0.5 -0.734,-0.682c-0.284,-0.182 -0.568,-0.324 -0.853,-0.426c-0.284,-0.103 -0.545,-0.171 -0.784,-0.205c-0.239,-0.034 -0.415,-0.051 -0.529,-0.051c-0.955,0 -1.751,0.261 -2.388,0.784c-0.637,0.524 -1.16,1.297 -1.57,2.32l-0.204,0l0,-2.729l-2.901,0Z" style="fill:#405084;fill-rule:nonzero;"/><path d="M161.301,8.598l0,-1.365l2.968,0l0,-5.254l2.9,0l0,5.254l4.129,0l0,1.365l-4.129,0l0,11.327c0,0.273 0.012,0.586 0.034,0.938c0.023,0.353 0.091,0.683 0.205,0.99c0.114,0.307 0.29,0.563 0.529,0.767c0.239,0.205 0.574,0.307 1.006,0.307c0.546,0 1.001,-0.204 1.365,-0.614c0.364,-0.409 0.66,-0.853 0.887,-1.33l1.604,1.637c-1.115,1.115 -2.377,1.672 -3.787,1.672c-0.592,0 -1.172,-0.102 -1.74,-0.307c-0.569,-0.205 -1.075,-0.517 -1.519,-0.938c-0.443,-0.421 -0.801,-0.961 -1.074,-1.621c-0.273,-0.659 -0.41,-1.433 -0.41,-2.32l0,-10.508l-2.968,0Z" style="fill:#405084;fill-rule:nonzero;"/><path d="M101.014,47.317l3.276,7.029l3.309,0l-11.122,-23.883l-1.706,0l-10.099,23.883l1.569,0l3.002,-7.029l11.771,0Zm-0.716,-1.535l-10.406,0l4.913,-11.498l0.136,0l5.357,11.498Z" style="fill:#1fbba3;fill-rule:nonzero;"/><path d="M122.167,55.779c0,1.046 -0.125,1.933 -0.376,2.661c-0.251,0.728 -0.599,1.319 -1.044,1.774c-0.446,0.455 -0.971,0.785 -1.575,0.989c-0.605,0.205 -1.25,0.308 -1.935,0.308c-1.209,0 -2.185,-0.308 -2.927,-0.922c-0.742,-0.614 -1.421,-1.433 -2.037,-2.456l-1.858,1.706c0.159,0.204 0.41,0.472 0.751,0.802c0.342,0.329 0.775,0.659 1.298,0.989c0.524,0.33 1.15,0.614 1.879,0.853c0.728,0.239 1.559,0.358 2.493,0.358c1.73,0 3.131,-0.244 4.201,-0.733c1.07,-0.489 1.902,-1.143 2.494,-1.962c0.592,-0.819 0.996,-1.757 1.212,-2.815c0.216,-1.058 0.325,-2.155 0.325,-3.292l0,-16.752l-2.901,0l0,2.661l-0.136,0c-0.273,-0.955 -0.859,-1.7 -1.757,-2.235c-0.899,-0.534 -2.076,-0.802 -3.531,-0.802c-1.16,0 -2.218,0.211 -3.173,0.632c-0.956,0.42 -1.774,1.017 -2.457,1.791c-0.682,0.773 -1.211,1.706 -1.586,2.797c-0.376,1.092 -0.563,2.309 -0.563,3.651c0,1.365 0.187,2.599 0.563,3.702c0.375,1.103 0.904,2.047 1.586,2.832c0.683,0.784 1.496,1.387 2.44,1.808c0.944,0.421 1.996,0.631 3.156,0.631c1.273,0 2.382,-0.25 3.326,-0.75c0.944,-0.501 1.609,-1.297 1.996,-2.389l0.136,0l0,4.163Zm0,-8.7c0,0.955 -0.131,1.796 -0.393,2.524c-0.263,0.728 -0.611,1.342 -1.044,1.843c-0.434,0.5 -0.936,0.881 -1.507,1.143c-0.57,0.261 -1.164,0.392 -1.78,0.392c-0.547,0 -1.135,-0.097 -1.763,-0.29c-0.627,-0.193 -1.209,-0.552 -1.746,-1.075c-0.536,-0.523 -0.981,-1.262 -1.335,-2.217c-0.354,-0.956 -0.53,-2.184 -0.53,-3.685c0,-1.592 0.216,-2.86 0.65,-3.804c0.433,-0.944 0.941,-1.666 1.523,-2.167c0.582,-0.5 1.176,-0.824 1.78,-0.972c0.605,-0.148 1.079,-0.222 1.421,-0.222c0.753,0 1.427,0.165 2.02,0.495c0.594,0.33 1.09,0.773 1.489,1.33c0.4,0.558 0.702,1.2 0.907,1.928c0.206,0.728 0.308,1.479 0.308,2.252l0,2.525Z" style="fill:#1fbba3;fill-rule:nonzero;"/><path d="M129.162,37.287l0,17.059l2.9,0l0,-10.304c0,-0.932 0.108,-1.723 0.324,-2.371c0.216,-0.648 0.495,-1.177 0.836,-1.587c0.341,-0.409 0.716,-0.705 1.126,-0.887c0.409,-0.182 0.807,-0.273 1.194,-0.273c0.523,0 1.006,0.171 1.45,0.512c0.443,0.341 0.767,0.66 0.972,0.955l1.16,-2.115c-0.205,-0.273 -0.449,-0.5 -0.733,-0.682c-0.285,-0.182 -0.569,-0.324 -0.853,-0.427c-0.285,-0.102 -0.546,-0.17 -0.785,-0.204c-0.239,-0.035 -0.415,-0.052 -0.529,-0.052c-0.955,0 -1.751,0.262 -2.388,0.785c-0.637,0.523 -1.16,1.297 -1.57,2.32l-0.204,0l0,-2.729l-2.9,0Z" style="fill:#1fbba3;fill-rule:nonzero;"/><path d="M157.48,45.85c0,1.183 -0.205,2.315 -0.614,3.395c-0.41,1.081 -0.995,2.03 -1.757,2.849c-0.762,0.819 -1.684,1.467 -2.764,1.945c-1.08,0.477 -2.292,0.716 -3.634,0.716c-1.364,0 -2.598,-0.244 -3.701,-0.733c-1.104,-0.489 -2.036,-1.143 -2.798,-1.962c-0.762,-0.819 -1.353,-1.769 -1.774,-2.849c-0.421,-1.08 -0.631,-2.201 -0.631,-3.361c0,-1.182 0.21,-2.314 0.631,-3.394c0.421,-1.081 1.012,-2.03 1.774,-2.849c0.762,-0.819 1.694,-1.473 2.798,-1.962c1.103,-0.489 2.337,-0.734 3.701,-0.734c1.342,0 2.554,0.245 3.634,0.734c1.08,0.489 2.002,1.143 2.764,1.962c0.762,0.819 1.347,1.768 1.757,2.849c0.409,1.08 0.614,2.212 0.614,3.394Zm-3.241,0c0,-1.592 -0.171,-2.883 -0.512,-3.872c-0.341,-0.989 -0.785,-1.757 -1.331,-2.303c-0.546,-0.546 -1.148,-0.916 -1.808,-1.109c-0.66,-0.193 -1.297,-0.29 -1.911,-0.29c-0.614,0 -1.251,0.097 -1.91,0.29c-0.66,0.193 -1.268,0.563 -1.826,1.109c-0.557,0.546 -1.012,1.314 -1.364,2.303c-0.353,0.989 -0.529,2.28 -0.529,3.872c0,1.57 0.176,2.849 0.529,3.839c0.352,0.989 0.807,1.757 1.364,2.303c0.558,0.545 1.166,0.915 1.826,1.108c0.659,0.194 1.296,0.29 1.91,0.29c0.614,0 1.251,-0.096 1.911,-0.29c0.66,-0.193 1.262,-0.563 1.808,-1.108c0.546,-0.546 0.99,-1.314 1.331,-2.303c0.341,-0.99 0.512,-2.269 0.512,-3.839Z" style="fill:#1fbba3;fill-rule:nonzero;"/><path d="M161.915,30.463l0,23.883l3.105,0l0,-11.873l10.576,0l0,-1.57l-10.576,0l0,-8.563l12.317,0l0,-1.877l-15.422,0Z" style="fill:#1fbba3;fill-rule:nonzero;"/><path d="M185.997,36.911c1.662,0 2.948,0.234 3.858,0.7c0.911,0.466 1.577,1.075 1.998,1.825c0.421,0.751 0.666,1.615 0.734,2.593c0.069,0.978 0.103,1.979 0.103,3.003l0,9.314l-2.764,0l0,-1.672c-0.66,0.637 -1.501,1.143 -2.525,1.518c-1.023,0.376 -2.047,0.563 -3.07,0.563c-0.978,0 -1.843,-0.17 -2.593,-0.512c-0.751,-0.341 -1.376,-0.784 -1.877,-1.33c-0.5,-0.546 -0.875,-1.16 -1.126,-1.843c-0.25,-0.682 -0.375,-1.376 -0.375,-2.081c0,-0.728 0.137,-1.455 0.409,-2.183c0.273,-0.728 0.683,-1.382 1.229,-1.962c0.546,-0.58 1.217,-1.052 2.013,-1.416c0.796,-0.364 1.706,-0.546 2.729,-0.546c1.024,0 1.996,0.199 2.917,0.597c0.921,0.398 1.678,0.961 2.269,1.689l0,-1.467c0,-1.865 -0.28,-3.253 -0.839,-4.163c-0.559,-0.909 -1.581,-1.364 -3.065,-1.364c-0.64,0 -1.199,0.079 -1.678,0.239c-0.48,0.159 -0.908,0.381 -1.285,0.665c-0.377,0.284 -0.725,0.637 -1.045,1.058c-0.32,0.42 -0.639,0.892 -0.959,1.415l-1.751,-1.774c0.319,-0.341 0.655,-0.682 1.007,-1.023c0.353,-0.341 0.786,-0.648 1.298,-0.921c0.512,-0.273 1.121,-0.495 1.827,-0.666c0.706,-0.17 1.559,-0.256 2.561,-0.256Zm3.929,10.679c-0.114,-0.273 -0.28,-0.591 -0.496,-0.955c-0.217,-0.364 -0.497,-0.716 -0.84,-1.058c-0.342,-0.341 -0.753,-0.631 -1.233,-0.87c-0.479,-0.238 -1.05,-0.358 -1.713,-0.358c-0.662,0 -1.267,0.131 -1.815,0.393c-0.548,0.261 -1.01,0.602 -1.387,1.023c-0.377,0.421 -0.668,0.916 -0.874,1.484c-0.205,0.569 -0.308,1.16 -0.308,1.774c0,0.728 0.131,1.359 0.394,1.894c0.263,0.534 0.6,0.989 1.011,1.365c0.411,0.375 0.867,0.654 1.37,0.836c0.502,0.181 0.981,0.272 1.438,0.272c0.434,0 0.874,-0.079 1.319,-0.238c0.445,-0.16 0.868,-0.381 1.267,-0.666c0.4,-0.284 0.76,-0.619 1.079,-1.006c0.32,-0.387 0.583,-0.808 0.788,-1.263l0,-2.627Z" style="fill:#1fbba3;fill-rule:nonzero;"/><path d="M196.784,37.287l0,17.059l2.9,0l0,-10.304c0,-0.932 0.108,-1.723 0.324,-2.371c0.216,-0.648 0.495,-1.177 0.836,-1.587c0.341,-0.409 0.716,-0.705 1.126,-0.887c0.409,-0.182 0.807,-0.273 1.194,-0.273c0.523,0 1.006,0.171 1.45,0.512c0.443,0.341 0.768,0.66 0.972,0.955l1.16,-2.115c-0.204,-0.273 -0.449,-0.5 -0.733,-0.682c-0.285,-0.182 -0.569,-0.324 -0.853,-0.427c-0.284,-0.102 -0.546,-0.17 -0.785,-0.204c-0.239,-0.035 -0.415,-0.052 -0.529,-0.052c-0.955,0 -1.751,0.262 -2.388,0.785c-0.637,0.523 -1.16,1.297 -1.569,2.32l-0.205,0l0,-2.729l-2.9,0Z" style="fill:#1fbba3;fill-rule:nonzero;"/><path d="M211.352,54.346l0,-9.724c0,-0.409 0.034,-0.95 0.103,-1.621c0.068,-0.671 0.244,-1.33 0.528,-1.978c0.285,-0.649 0.723,-1.206 1.314,-1.672c0.591,-0.466 1.422,-0.7 2.491,-0.7c0.773,0 1.37,0.171 1.791,0.512c0.421,0.341 0.733,0.762 0.938,1.263c0.205,0.5 0.324,1.023 0.358,1.569c0.034,0.546 0.052,1.024 0.052,1.433l0,10.918l2.9,0l0,-9.724c0,-0.5 0.045,-1.097 0.136,-1.791c0.091,-0.694 0.284,-1.348 0.58,-1.962c0.296,-0.614 0.722,-1.137 1.279,-1.569c0.558,-0.433 1.314,-0.649 2.269,-0.649c0.705,0 1.274,0.103 1.706,0.307c0.432,0.205 0.768,0.512 1.007,0.922c0.239,0.409 0.398,0.909 0.477,1.501c0.08,0.591 0.12,1.274 0.12,2.047l0,10.918l2.9,0l0,-11.907c0,-0.524 -0.057,-1.109 -0.171,-1.758c-0.114,-0.648 -0.358,-1.251 -0.733,-1.808c-0.376,-0.557 -0.922,-1.023 -1.638,-1.399c-0.716,-0.375 -1.666,-0.563 -2.849,-0.563c-0.341,0 -0.739,0.035 -1.194,0.103c-0.455,0.068 -0.933,0.216 -1.433,0.443c-0.5,0.228 -0.984,0.558 -1.45,0.99c-0.466,0.432 -0.87,1.001 -1.211,1.706l-0.239,0c-0.136,-0.364 -0.33,-0.734 -0.58,-1.109c-0.25,-0.376 -0.569,-0.722 -0.955,-1.041c-0.387,-0.318 -0.848,-0.58 -1.382,-0.785c-0.535,-0.204 -1.177,-0.307 -1.928,-0.307c-0.341,0 -0.75,0.04 -1.228,0.12c-0.478,0.079 -0.955,0.233 -1.433,0.46c-0.478,0.228 -0.927,0.546 -1.348,0.956c-0.42,0.409 -0.767,0.944 -1.04,1.603l-0.137,0l0,-2.763l-2.9,0l0,17.059l2.9,0Z" style="fill:#1fbba3;fill-rule:nonzero;"/></g><g><path d="M142.408,55.907c0.059,0.044 0.07,0.106 0.033,0.186c-0.036,0.081 -0.099,0.157 -0.186,0.23c-0.088,0.073 -0.19,0.139 -0.307,0.198c-0.117,0.058 -0.226,0.087 -0.329,0.087c-0.35,-0.029 -0.704,-0.069 -1.062,-0.12c-0.358,-0.051 -0.712,-0.106 -1.063,-0.165c-0.292,0.088 -0.551,0.216 -0.778,0.384c-0.226,0.168 -0.434,0.394 -0.624,0.679c-0.19,0.285 -0.373,0.646 -0.548,1.085c-0.175,0.438 -0.35,0.978 -0.526,1.621c-0.102,0.336 -0.197,0.665 -0.285,0.986c-0.087,0.321 -0.189,0.635 -0.306,0.942c0.365,-0.014 0.734,-0.022 1.106,-0.022l1.15,0c0.073,0.029 0.099,0.066 0.077,0.11c-0.022,0.044 -0.091,0.08 -0.208,0.109c-0.38,0 -0.756,0.004 -1.128,0.011c-0.373,0.008 -0.734,0.019 -1.085,0.033c-0.862,2.41 -1.946,4.178 -3.254,5.302c-1.307,1.125 -2.866,1.688 -4.678,1.688c-1.051,0 -1.84,-0.267 -2.366,-0.8c-0.526,-0.533 -0.789,-1.238 -0.789,-2.114c0,-0.424 0.114,-0.848 0.34,-1.271c0.226,-0.424 0.551,-0.782 0.975,-1.074c0.073,0 0.12,0.029 0.142,0.088c0.022,0.058 0.019,0.109 -0.011,0.153c-0.263,0.205 -0.456,0.427 -0.58,0.668c-0.124,0.241 -0.186,0.566 -0.186,0.975c0,0.38 0.065,0.731 0.197,1.052c0.131,0.321 0.336,0.603 0.613,0.844c0.278,0.241 0.636,0.427 1.074,0.558c0.438,0.132 0.964,0.198 1.577,0.198c0.731,0 1.388,-0.106 1.972,-0.318c0.585,-0.212 1.121,-0.563 1.611,-1.052c0.489,-0.489 0.942,-1.132 1.358,-1.928c0.417,-0.796 0.815,-1.771 1.194,-2.925c-0.73,0.029 -1.442,0.073 -2.136,0.131c-0.694,0.059 -1.391,0.139 -2.092,0.241c-0.044,-0.014 -0.037,-0.047 0.022,-0.098c0.058,-0.051 0.142,-0.102 0.251,-0.154c0.11,-0.051 0.227,-0.102 0.351,-0.153c0.124,-0.051 0.223,-0.084 0.296,-0.098c0.599,-0.044 1.176,-0.077 1.731,-0.099c0.555,-0.022 1.11,-0.04 1.665,-0.055c0.073,-0.234 0.146,-0.475 0.219,-0.723c0.073,-0.248 0.146,-0.504 0.219,-0.767c0.175,-0.628 0.354,-1.179 0.537,-1.654c0.183,-0.475 0.391,-0.88 0.624,-1.216c0.234,-0.336 0.493,-0.617 0.778,-0.844c0.285,-0.226 0.617,-0.412 0.997,-0.558c-0.789,-0.117 -1.548,-0.223 -2.279,-0.318c-0.73,-0.095 -1.424,-0.142 -2.081,-0.142c-1.096,0 -2.016,0.233 -2.761,0.701c-0.745,0.467 -1.285,1.205 -1.621,2.213c-0.044,0.029 -0.088,0.033 -0.132,0.011c-0.043,-0.022 -0.065,-0.07 -0.065,-0.143c0.321,-1.037 0.953,-1.869 1.895,-2.498c0.942,-0.628 2.107,-0.942 3.495,-0.942c0.54,0 1.084,0.029 1.632,0.088c0.548,0.058 1.106,0.128 1.676,0.208c0.57,0.08 1.158,0.164 1.764,0.252c0.606,0.088 1.238,0.161 1.895,0.219Z" style="fill:#767676;fill-rule:nonzero;"/><path d="M143.789,67.87c0.029,-0.029 0.065,-0.029 0.109,0c0.044,0.029 0.059,0.073 0.044,0.132c-0.307,0.423 -0.61,0.737 -0.909,0.942c-0.3,0.204 -0.552,0.307 -0.756,0.307c-0.132,0 -0.238,-0.066 -0.318,-0.198c-0.08,-0.131 -0.131,-0.31 -0.153,-0.536c-0.022,-0.227 -0.015,-0.482 0.022,-0.767c0.036,-0.285 0.098,-0.581 0.186,-0.888c-0.395,0.614 -0.811,1.143 -1.249,1.589c-0.438,0.445 -0.862,0.712 -1.271,0.8c-0.263,0 -0.486,-0.128 -0.668,-0.384c-0.183,-0.255 -0.274,-0.653 -0.274,-1.194c0,-0.482 0.099,-0.96 0.296,-1.435c0.197,-0.475 0.464,-0.906 0.799,-1.293c0.336,-0.387 0.724,-0.697 1.162,-0.931c0.438,-0.234 0.898,-0.351 1.38,-0.351c0.263,0 0.489,0.03 0.679,0.088c0.19,0.059 0.366,0.146 0.526,0.263c0.088,-0.073 0.208,-0.142 0.362,-0.208c0.153,-0.066 0.295,-0.099 0.427,-0.099c0.073,0 0.095,0.037 0.066,0.11c-0.336,0.409 -0.625,0.862 -0.866,1.358c-0.241,0.497 -0.427,0.979 -0.558,1.446c-0.132,0.468 -0.216,0.88 -0.252,1.238c-0.037,0.358 -0.011,0.603 0.076,0.734c0.073,0.103 0.205,0.106 0.395,0.011c0.19,-0.095 0.438,-0.339 0.745,-0.734Zm-3.813,0.636c0.161,0 0.369,-0.114 0.625,-0.34c0.255,-0.226 0.522,-0.522 0.799,-0.887c0.278,-0.366 0.552,-0.778 0.822,-1.238c0.27,-0.46 0.508,-0.924 0.712,-1.392c-0.058,-0.189 -0.193,-0.343 -0.405,-0.46c-0.212,-0.117 -0.457,-0.175 -0.734,-0.175c-0.322,0 -0.625,0.084 -0.91,0.252c-0.284,0.168 -0.536,0.402 -0.755,0.701c-0.22,0.3 -0.395,0.654 -0.526,1.063c-0.132,0.409 -0.198,0.862 -0.198,1.358c0,0.322 0.055,0.588 0.165,0.8c0.109,0.212 0.244,0.318 0.405,0.318Z" style="fill:#767676;fill-rule:nonzero;"/><path d="M146.966,64.255c0,0.219 -0.022,0.475 -0.066,0.767c-0.044,0.292 -0.102,0.584 -0.175,0.876c0.292,-0.701 0.613,-1.252 0.964,-1.654c0.35,-0.402 0.73,-0.602 1.139,-0.602c0.161,0 0.307,0.043 0.438,0.131c0.132,0.088 0.197,0.212 0.197,0.372c0,0.117 -0.043,0.267 -0.131,0.45c-0.088,0.182 -0.175,0.317 -0.263,0.405c-0.088,0.058 -0.131,0.036 -0.131,-0.066c0,-0.248 -0.168,-0.372 -0.504,-0.372c-0.512,0 -0.972,0.383 -1.381,1.15c-0.409,0.767 -0.796,1.83 -1.161,3.188c-0.029,0.146 -0.128,0.241 -0.296,0.285c-0.168,0.044 -0.31,0.066 -0.427,0.066c-0.161,0 -0.197,-0.081 -0.11,-0.241c0.132,-0.307 0.256,-0.639 0.373,-0.997c0.117,-0.358 0.23,-0.72 0.339,-1.085c0.11,-0.365 0.201,-0.723 0.274,-1.074c0.073,-0.35 0.132,-0.671 0.176,-0.964c0.058,-0.438 -0.015,-0.657 -0.219,-0.657c-0.117,0 -0.252,0.066 -0.406,0.197c-0.153,0.132 -0.296,0.285 -0.427,0.46c-0.058,0.03 -0.11,0.026 -0.153,-0.011c-0.044,-0.036 -0.052,-0.084 -0.022,-0.142c0.219,-0.277 0.463,-0.529 0.734,-0.756c0.27,-0.226 0.522,-0.339 0.756,-0.339c0.321,0 0.482,0.204 0.482,0.613Z" style="fill:#767676;fill-rule:nonzero;"/><path d="M156.387,64.649c0,-0.306 -0.109,-0.46 -0.329,-0.46c-0.219,0 -0.46,0.11 -0.723,0.329c-0.263,0.219 -0.536,0.533 -0.821,0.942c-0.285,0.409 -0.57,0.909 -0.855,1.501c-0.285,0.592 -0.558,1.26 -0.821,2.005c-0.03,0.087 -0.106,0.157 -0.23,0.208c-0.125,0.051 -0.245,0.077 -0.362,0.077c-0.175,0 -0.241,-0.066 -0.197,-0.198c0.087,-0.263 0.208,-0.591 0.361,-0.986c0.154,-0.394 0.3,-0.799 0.439,-1.216c0.138,-0.416 0.259,-0.807 0.361,-1.172c0.102,-0.365 0.153,-0.65 0.153,-0.854c0,-0.409 -0.124,-0.614 -0.372,-0.614c-0.38,0 -0.862,0.409 -1.446,1.227c-0.584,0.818 -1.139,1.994 -1.665,3.528c-0.03,0.087 -0.095,0.157 -0.198,0.208c-0.102,0.051 -0.211,0.077 -0.328,0.077c-0.073,0 -0.132,-0.015 -0.175,-0.044c-0.044,-0.029 -0.052,-0.081 -0.022,-0.154c0.116,-0.321 0.241,-0.675 0.372,-1.062c0.132,-0.387 0.263,-0.778 0.394,-1.172c0.132,-0.395 0.252,-0.782 0.362,-1.162c0.11,-0.379 0.201,-0.737 0.274,-1.073c0.073,-0.263 0.036,-0.395 -0.11,-0.395c-0.117,0 -0.255,0.081 -0.416,0.241c-0.161,0.161 -0.321,0.351 -0.482,0.57c-0.044,0.029 -0.088,0.026 -0.131,-0.011c-0.044,-0.037 -0.052,-0.077 -0.022,-0.12c0.219,-0.307 0.463,-0.588 0.734,-0.844c0.27,-0.256 0.544,-0.383 0.821,-0.383c0.19,0 0.311,0.073 0.362,0.219c0.051,0.146 0.055,0.321 0.011,0.525c-0.073,0.322 -0.143,0.618 -0.208,0.888c-0.066,0.27 -0.15,0.544 -0.252,0.821c0.379,-0.73 0.799,-1.321 1.259,-1.774c0.461,-0.453 0.917,-0.679 1.37,-0.679c0.175,0 0.318,0.065 0.427,0.197c0.11,0.131 0.164,0.314 0.164,0.547c0,0.307 -0.029,0.614 -0.087,0.921c-0.059,0.306 -0.146,0.621 -0.263,0.942c0.438,-0.833 0.909,-1.475 1.413,-1.928c0.504,-0.453 1.004,-0.679 1.501,-0.679c0.161,0 0.292,0.058 0.394,0.175c0.103,0.117 0.154,0.27 0.154,0.46c0,0.263 -0.055,0.551 -0.165,0.865c-0.109,0.314 -0.23,0.639 -0.361,0.975c-0.132,0.336 -0.252,0.669 -0.362,0.997c-0.109,0.329 -0.164,0.639 -0.164,0.932c0,0.365 0.11,0.547 0.329,0.547c0.233,0 0.555,-0.241 0.964,-0.723c0.029,-0.029 0.062,-0.022 0.098,0.022c0.037,0.044 0.041,0.095 0.011,0.154c-0.087,0.116 -0.197,0.244 -0.328,0.383c-0.132,0.139 -0.267,0.27 -0.406,0.394c-0.138,0.125 -0.288,0.227 -0.449,0.307c-0.161,0.08 -0.314,0.121 -0.46,0.121c-0.336,0 -0.504,-0.278 -0.504,-0.833c0,-0.351 0.051,-0.705 0.153,-1.063c0.103,-0.358 0.216,-0.701 0.34,-1.029c0.124,-0.329 0.237,-0.64 0.34,-0.932c0.102,-0.292 0.153,-0.54 0.153,-0.745Z" style="fill:#767676;fill-rule:nonzero;"/><path d="M170.826,58.23c0.073,-0.015 0.135,-0.004 0.186,0.033c0.051,0.036 0.062,0.091 0.033,0.164c-0.453,0.394 -0.84,0.803 -1.161,1.227c-0.321,0.423 -0.628,0.891 -0.92,1.402c-0.38,0.672 -0.745,1.402 -1.096,2.191c-0.35,0.789 -0.679,1.622 -0.986,2.498c0.073,0.015 0.146,0.022 0.219,0.022l0.219,0c0.512,0 0.932,-0.077 1.26,-0.23c0.329,-0.154 0.574,-0.376 0.734,-0.668c0.029,-0.03 0.07,-0.026 0.121,0.01c0.051,0.037 0.062,0.092 0.033,0.165c-0.263,0.467 -0.592,0.814 -0.986,1.041c-0.395,0.226 -0.942,0.339 -1.644,0.339l-0.197,0c-0.117,0.38 -0.234,0.771 -0.35,1.172c-0.117,0.402 -0.234,0.807 -0.351,1.216c-0.058,0.132 -0.183,0.26 -0.372,0.384c-0.19,0.124 -0.366,0.186 -0.526,0.186c-0.146,0 -0.227,-0.044 -0.241,-0.131c0.16,-0.468 0.321,-0.943 0.482,-1.425c0.16,-0.482 0.336,-0.964 0.526,-1.446c-0.497,-0.043 -0.943,-0.106 -1.337,-0.186c-0.394,-0.08 -0.738,-0.146 -1.03,-0.197c-0.292,-0.051 -0.544,-0.084 -0.756,-0.099c-0.211,-0.014 -0.376,0.022 -0.493,0.11l-0.175,0.153c-0.058,0.029 -0.117,0.029 -0.175,0c-0.059,-0.029 -0.073,-0.08 -0.044,-0.153c0.628,-0.774 1.315,-1.527 2.06,-2.257c0.745,-0.73 1.511,-1.428 2.3,-2.092c0.789,-0.665 1.581,-1.286 2.377,-1.863c0.797,-0.577 1.56,-1.099 2.29,-1.566Zm-4.754,7.493c0.423,-1.052 0.865,-2.071 1.325,-3.056c0.46,-0.986 0.924,-1.874 1.391,-2.663c-0.584,0.395 -1.135,0.796 -1.654,1.205c-0.518,0.409 -1.015,0.829 -1.49,1.26c-0.474,0.431 -0.938,0.877 -1.391,1.337c-0.453,0.46 -0.906,0.938 -1.359,1.435c0.424,0.117 0.906,0.219 1.447,0.307c0.54,0.087 1.117,0.146 1.731,0.175Z" style="fill:#767676;fill-rule:nonzero;"/><path d="M190.414,55.907c0.058,0.044 0.069,0.106 0.033,0.186c-0.037,0.081 -0.099,0.157 -0.186,0.23c-0.088,0.073 -0.19,0.139 -0.307,0.198c-0.117,0.058 -0.227,0.087 -0.329,0.087c-0.35,-0.029 -0.705,-0.069 -1.062,-0.12c-0.358,-0.051 -0.713,-0.106 -1.063,-0.165c-0.292,0.088 -0.551,0.216 -0.778,0.384c-0.226,0.168 -0.434,0.394 -0.624,0.679c-0.19,0.285 -0.373,0.646 -0.548,1.085c-0.175,0.438 -0.351,0.978 -0.526,1.621c-0.102,0.336 -0.197,0.665 -0.285,0.986c-0.087,0.321 -0.19,0.635 -0.307,0.942c0.366,-0.014 0.734,-0.022 1.107,-0.022l1.15,0c0.073,0.029 0.099,0.066 0.077,0.11c-0.022,0.044 -0.091,0.08 -0.208,0.109c-0.38,0 -0.756,0.004 -1.129,0.011c-0.372,0.008 -0.734,0.019 -1.084,0.033c-0.862,2.41 -1.947,4.178 -3.254,5.302c-1.307,1.125 -2.867,1.688 -4.678,1.688c-1.051,0 -1.84,-0.267 -2.366,-0.8c-0.526,-0.533 -0.789,-1.238 -0.789,-2.114c0,-0.424 0.113,-0.848 0.34,-1.271c0.226,-0.424 0.551,-0.782 0.975,-1.074c0.073,0 0.12,0.029 0.142,0.088c0.022,0.058 0.018,0.109 -0.011,0.153c-0.263,0.205 -0.456,0.427 -0.58,0.668c-0.125,0.241 -0.187,0.566 -0.187,0.975c0,0.38 0.066,0.731 0.198,1.052c0.131,0.321 0.336,0.603 0.613,0.844c0.278,0.241 0.635,0.427 1.074,0.558c0.438,0.132 0.964,0.198 1.577,0.198c0.731,0 1.388,-0.106 1.972,-0.318c0.584,-0.212 1.121,-0.563 1.611,-1.052c0.489,-0.489 0.942,-1.132 1.358,-1.928c0.416,-0.796 0.814,-1.771 1.194,-2.925c-0.73,0.029 -1.442,0.073 -2.136,0.131c-0.694,0.059 -1.391,0.139 -2.093,0.241c-0.043,-0.014 -0.036,-0.047 0.022,-0.098c0.059,-0.051 0.143,-0.102 0.252,-0.154c0.11,-0.051 0.227,-0.102 0.351,-0.153c0.124,-0.051 0.223,-0.084 0.296,-0.098c0.599,-0.044 1.176,-0.077 1.731,-0.099c0.555,-0.022 1.11,-0.04 1.665,-0.055c0.073,-0.234 0.146,-0.475 0.219,-0.723c0.073,-0.248 0.146,-0.504 0.219,-0.767c0.175,-0.628 0.354,-1.179 0.537,-1.654c0.182,-0.475 0.391,-0.88 0.624,-1.216c0.234,-0.336 0.493,-0.617 0.778,-0.844c0.285,-0.226 0.617,-0.412 0.997,-0.558c-0.789,-0.117 -1.548,-0.223 -2.279,-0.318c-0.73,-0.095 -1.424,-0.142 -2.081,-0.142c-1.096,0 -2.016,0.233 -2.761,0.701c-0.745,0.467 -1.285,1.205 -1.621,2.213c-0.044,0.029 -0.088,0.033 -0.132,0.011c-0.044,-0.022 -0.065,-0.07 -0.065,-0.143c0.321,-1.037 0.953,-1.869 1.895,-2.498c0.942,-0.628 2.107,-0.942 3.494,-0.942c0.541,0 1.085,0.029 1.633,0.088c0.548,0.058 1.106,0.128 1.676,0.208c0.57,0.08 1.158,0.164 1.764,0.252c0.606,0.088 1.238,0.161 1.895,0.219Z" style="fill:#767676;fill-rule:nonzero;"/><path d="M187.303,69.251c-0.19,0 -0.358,-0.092 -0.504,-0.274c-0.146,-0.183 -0.219,-0.42 -0.219,-0.712c0,-0.234 0.033,-0.508 0.098,-0.822c0.066,-0.314 0.154,-0.646 0.263,-0.997c0.11,-0.351 0.245,-0.701 0.406,-1.052c0.16,-0.35 0.343,-0.679 0.547,-0.986c-0.16,0.117 -0.328,0.245 -0.504,0.384c-0.175,0.139 -0.321,0.266 -0.438,0.383c-0.044,0.029 -0.08,0.019 -0.109,-0.033c-0.03,-0.051 -0.037,-0.098 -0.022,-0.142c0.102,-0.102 0.233,-0.219 0.394,-0.351c0.161,-0.131 0.332,-0.263 0.515,-0.394c0.183,-0.131 0.372,-0.259 0.57,-0.383c0.197,-0.125 0.383,-0.23 0.558,-0.318c0.059,-0.015 0.106,0 0.143,0.044c0.036,0.044 0.047,0.095 0.033,0.153c-0.468,0.599 -0.844,1.26 -1.129,1.983c-0.285,0.723 -0.427,1.413 -0.427,2.071c0,0.423 0.124,0.635 0.372,0.635c0.19,0 0.428,-0.128 0.713,-0.384c0.284,-0.255 0.58,-0.591 0.887,-1.007c0.307,-0.417 0.617,-0.888 0.931,-1.414c0.314,-0.525 0.603,-1.059 0.866,-1.599c0.043,-0.102 0.127,-0.194 0.252,-0.274c0.124,-0.08 0.259,-0.12 0.405,-0.12c0.19,0 0.256,0.058 0.197,0.175c-0.204,0.38 -0.387,0.734 -0.548,1.062c-0.16,0.329 -0.292,0.654 -0.394,0.975c-0.102,0.322 -0.179,0.65 -0.23,0.986c-0.051,0.336 -0.077,0.702 -0.077,1.096c0,0.467 0.132,0.701 0.395,0.701c0.116,0 0.248,-0.062 0.394,-0.186c0.146,-0.124 0.292,-0.289 0.438,-0.493c0.044,-0.029 0.088,-0.029 0.132,0c0.043,0.029 0.051,0.08 0.022,0.153c-0.205,0.307 -0.442,0.574 -0.713,0.8c-0.27,0.226 -0.529,0.34 -0.777,0.34c-0.19,0 -0.351,-0.095 -0.482,-0.285c-0.132,-0.19 -0.198,-0.446 -0.198,-0.767c0,-0.351 0.033,-0.727 0.099,-1.128c0.066,-0.402 0.172,-0.808 0.318,-1.217c-0.278,0.541 -0.57,1.019 -0.877,1.436c-0.306,0.416 -0.602,0.77 -0.887,1.062c-0.285,0.292 -0.551,0.515 -0.8,0.669c-0.248,0.153 -0.453,0.23 -0.613,0.23Z" style="fill:#767676;fill-rule:nonzero;"/><path d="M196.943,63.729c0.073,0.029 0.103,0.073 0.088,0.132c-0.015,0.058 -0.08,0.095 -0.197,0.109c-0.234,0.015 -0.493,0.029 -0.778,0.044c-0.285,0.015 -0.573,0.037 -0.866,0.066c-0.292,0.73 -0.533,1.431 -0.723,2.103c-0.189,0.672 -0.284,1.227 -0.284,1.665c0,0.497 0.19,0.745 0.569,0.745c0.38,0 0.796,-0.336 1.249,-1.008c0.044,-0.029 0.088,-0.025 0.132,0.011c0.043,0.037 0.058,0.092 0.043,0.165c-0.131,0.204 -0.281,0.398 -0.449,0.58c-0.168,0.183 -0.339,0.34 -0.515,0.471c-0.175,0.132 -0.343,0.238 -0.504,0.318c-0.16,0.08 -0.292,0.121 -0.394,0.121c-0.321,0 -0.559,-0.099 -0.712,-0.296c-0.153,-0.197 -0.23,-0.435 -0.23,-0.712c0,-0.482 0.102,-1.089 0.307,-1.819c0.204,-0.73 0.46,-1.482 0.767,-2.257c-0.19,0.03 -0.373,0.059 -0.548,0.088c-0.176,0.029 -0.343,0.058 -0.504,0.088c-0.073,-0.015 -0.091,-0.051 -0.055,-0.11c0.037,-0.058 0.102,-0.117 0.197,-0.175c0.095,-0.059 0.208,-0.113 0.34,-0.165c0.131,-0.051 0.255,-0.076 0.372,-0.076c0.073,-0.015 0.135,-0.022 0.187,-0.022l0.164,0c0.204,-0.453 0.409,-0.887 0.613,-1.304c0.205,-0.416 0.409,-0.8 0.614,-1.15c0.088,-0.088 0.186,-0.164 0.296,-0.23c0.109,-0.066 0.215,-0.11 0.317,-0.132c0.103,-0.022 0.183,-0.029 0.241,-0.022c0.059,0.008 0.081,0.033 0.066,0.077c-0.248,0.38 -0.493,0.804 -0.734,1.271c-0.241,0.467 -0.471,0.949 -0.69,1.446c0.263,0 0.526,-0.004 0.789,-0.011c0.263,-0.007 0.54,-0.011 0.832,-0.011Z" style="fill:#767676;fill-rule:nonzero;"/><path d="M197.601,69.251c-0.19,0 -0.358,-0.092 -0.504,-0.274c-0.146,-0.183 -0.219,-0.42 -0.219,-0.712c0,-0.234 0.032,-0.508 0.098,-0.822c0.066,-0.314 0.154,-0.646 0.263,-0.997c0.11,-0.351 0.245,-0.701 0.405,-1.052c0.161,-0.35 0.344,-0.679 0.548,-0.986c-0.16,0.117 -0.328,0.245 -0.504,0.384c-0.175,0.139 -0.321,0.266 -0.438,0.383c-0.044,0.029 -0.08,0.019 -0.109,-0.033c-0.03,-0.051 -0.037,-0.098 -0.022,-0.142c0.102,-0.102 0.233,-0.219 0.394,-0.351c0.161,-0.131 0.332,-0.263 0.515,-0.394c0.182,-0.131 0.372,-0.259 0.57,-0.383c0.197,-0.125 0.383,-0.23 0.558,-0.318c0.059,-0.015 0.106,0 0.143,0.044c0.036,0.044 0.047,0.095 0.033,0.153c-0.468,0.599 -0.844,1.26 -1.129,1.983c-0.285,0.723 -0.427,1.413 -0.427,2.071c0,0.423 0.124,0.635 0.372,0.635c0.19,0 0.428,-0.128 0.712,-0.384c0.285,-0.255 0.581,-0.591 0.888,-1.007c0.307,-0.417 0.617,-0.888 0.931,-1.414c0.314,-0.525 0.603,-1.059 0.866,-1.599c0.043,-0.102 0.127,-0.194 0.251,-0.274c0.125,-0.08 0.26,-0.12 0.406,-0.12c0.19,0 0.255,0.058 0.197,0.175c-0.204,0.38 -0.387,0.734 -0.548,1.062c-0.16,0.329 -0.292,0.654 -0.394,0.975c-0.102,0.322 -0.179,0.65 -0.23,0.986c-0.051,0.336 -0.077,0.702 -0.077,1.096c0,0.467 0.132,0.701 0.395,0.701c0.116,0 0.248,-0.062 0.394,-0.186c0.146,-0.124 0.292,-0.289 0.438,-0.493c0.044,-0.029 0.088,-0.029 0.132,0c0.043,0.029 0.051,0.08 0.021,0.153c-0.204,0.307 -0.441,0.574 -0.712,0.8c-0.27,0.226 -0.529,0.34 -0.777,0.34c-0.19,0 -0.351,-0.095 -0.482,-0.285c-0.132,-0.19 -0.198,-0.446 -0.198,-0.767c0,-0.351 0.033,-0.727 0.099,-1.128c0.066,-0.402 0.172,-0.808 0.318,-1.217c-0.278,0.541 -0.57,1.019 -0.877,1.436c-0.307,0.416 -0.602,0.77 -0.887,1.062c-0.285,0.292 -0.552,0.515 -0.8,0.669c-0.248,0.153 -0.453,0.23 -0.613,0.23Z" style="fill:#767676;fill-rule:nonzero;"/><path d="M205.379,64.255c0,0.219 -0.022,0.475 -0.066,0.767c-0.044,0.292 -0.102,0.584 -0.175,0.876c0.292,-0.701 0.613,-1.252 0.964,-1.654c0.35,-0.402 0.73,-0.602 1.139,-0.602c0.161,0 0.307,0.043 0.438,0.131c0.132,0.088 0.198,0.212 0.198,0.372c0,0.117 -0.044,0.267 -0.132,0.45c-0.087,0.182 -0.175,0.317 -0.263,0.405c-0.087,0.058 -0.131,0.036 -0.131,-0.066c0,-0.248 -0.168,-0.372 -0.504,-0.372c-0.511,0 -0.972,0.383 -1.381,1.15c-0.408,0.767 -0.796,1.83 -1.161,3.188c-0.029,0.146 -0.128,0.241 -0.296,0.285c-0.168,0.044 -0.31,0.066 -0.427,0.066c-0.16,0 -0.197,-0.081 -0.109,-0.241c0.131,-0.307 0.255,-0.639 0.372,-0.997c0.117,-0.358 0.23,-0.72 0.34,-1.085c0.109,-0.365 0.201,-0.723 0.274,-1.074c0.073,-0.35 0.131,-0.671 0.175,-0.964c0.058,-0.438 -0.015,-0.657 -0.219,-0.657c-0.117,0 -0.252,0.066 -0.406,0.197c-0.153,0.132 -0.295,0.285 -0.427,0.46c-0.058,0.03 -0.109,0.026 -0.153,-0.011c-0.044,-0.036 -0.051,-0.084 -0.022,-0.142c0.219,-0.277 0.464,-0.529 0.734,-0.756c0.27,-0.226 0.522,-0.339 0.756,-0.339c0.321,0 0.482,0.204 0.482,0.613Z" style="fill:#767676;fill-rule:nonzero;"/><path d="M211.514,64.606c0,0.204 -0.081,0.394 -0.241,0.569c-0.161,0.176 -0.38,0.333 -0.658,0.471c-0.277,0.139 -0.595,0.267 -0.953,0.384c-0.358,0.117 -0.734,0.226 -1.128,0.328c-0.015,0.161 -0.026,0.322 -0.033,0.482c-0.007,0.161 -0.011,0.336 -0.011,0.526c0,0.365 0.08,0.672 0.241,0.921c0.161,0.248 0.387,0.372 0.679,0.372c0.293,0 0.566,-0.073 0.822,-0.219c0.256,-0.146 0.486,-0.343 0.69,-0.592c0.059,-0.029 0.102,-0.022 0.132,0.022c0.029,0.044 0.029,0.095 0,0.154c-0.249,0.336 -0.559,0.624 -0.932,0.865c-0.372,0.241 -0.763,0.362 -1.172,0.362c-0.38,0 -0.69,-0.125 -0.931,-0.373c-0.241,-0.248 -0.361,-0.613 -0.361,-1.095c0,-0.439 0.08,-0.902 0.241,-1.392c0.16,-0.489 0.372,-0.938 0.635,-1.347c0.263,-0.409 0.566,-0.745 0.909,-1.008c0.344,-0.263 0.705,-0.394 1.085,-0.394c0.277,0 0.511,0.098 0.701,0.295c0.19,0.198 0.285,0.42 0.285,0.669Zm-1.446,-0.395c-0.336,0 -0.636,0.146 -0.899,0.438c-0.263,0.293 -0.452,0.753 -0.569,1.381c0.701,-0.102 1.216,-0.252 1.544,-0.449c0.329,-0.198 0.493,-0.42 0.493,-0.669c0,-0.204 -0.051,-0.372 -0.153,-0.504c-0.102,-0.131 -0.241,-0.197 -0.416,-0.197Z" style="fill:#767676;fill-rule:nonzero;"/></g></g></g></g></svg>