<svg xmlns="http://www.w3.org/2000/svg" viewBox="0 0 1998.57 453.87">
<path d="M1014.56,188.52a144.17,144.17,0,0,0-55.94-55q-35.89-20-82-20-50.85,0-90.34,21.84A154.88,154.88,0,0,0,725,196q-21.86,38.9-21.84,87.35t23,87.35q23,38.91,63.72,60.73t91.54,21.84q42.46,0,75.39-14.95a195.91,195.91,0,0,0,59.23-41.88L968.79,354q-16.15,18-35.9,25.73t-47.26,7.78q-34.11,0-57.74-12a84.22,84.22,0,0,1-36.5-35.3,98.6,98.6,0,0,1-9.92-27.52H1031a18.45,18.45,0,0,0,.6-4.48,12.26,12.26,0,0,1,.6-3.9q1.2-10.76,1.8-19.44c.39-5.78.6-11.46.6-17.05Q1034.61,223.53,1014.56,188.52ZM790.5,227.71a84.72,84.72,0,0,1,34.1-35.9q22.13-12.56,51.46-12.56,27.51,0,47,11.36t29.92,33.51A100.52,100.52,0,0,1,961,251.05H782A102.78,102.78,0,0,1,790.5,227.71Z" style="fill:white"></path>
<path d="M1251.41,453.87q-49.07,0-89.75-21.84a165.9,165.9,0,0,1-64.31-60.43Q1073.71,333,1073.72,284t23.63-88.25a164.63,164.63,0,0,1,64.31-61q40.68-21.84,89.75-21.84a189.66,189.66,0,0,1,73,14.06A152.87,152.87,0,0,1,1383,169.67L1329.79,214q-16.15-18-35.3-25.73t-43.68-7.77q-28.71,0-51.45,12t-36.5,35.6q-13.77,23.64-13.76,55.34,0,32.91,13.76,55.65a95,95,0,0,0,37.39,35.3q23.64,12.56,53,12.56,23.92,0,42.19-7.48t34.4-26.63L1383,397.63a162.22,162.22,0,0,1-58.34,41.88Q1290.89,453.87,1251.41,453.87Z" style="fill:white"></path>
<path d="M1673.69,148.73q-38-35.89-115.17-35.89a227.46,227.46,0,0,0-70.6,11.66,188.11,188.11,0,0,0-64.62,36.2l36.5,54.45q17.94-16.15,43.37-25.73t47.57-9.57q41.87,0,64,18.54,20.1,16.86,21.93,46.56-19.79-2.08-42.57-3.48-29.62-1.8-54.75-1.79-46.08,0-75.38,14.95t-42.79,39.49q-13.46,24.54-13.45,55.05,0,29.91,14.06,53.85t39.78,37.39q25.73,13.47,59.23,13.46,34.11,0,61.33-9.87t43.37-23.94a137.71,137.71,0,0,0,11.85-11.5l.12,38.73h74.19V251.05Q1711.68,184.63,1673.69,148.73Zm-48.17,195.65a84.57,84.57,0,0,1-33.2,31.11A96.6,96.6,0,0,1,1546,386.86q-32.29,0-50-10.17T1478.34,345q0-13.75,7.18-23.93t24.54-15.86q17.34-5.67,46.66-5.68,23.34,0,43.08,1.19,19.2,1.19,37.26,4v5.53A80.43,80.43,0,0,1,1625.52,344.38Z" style="fill:white"></path>
<path d="M1780,447.29V5.74h74.19V447.29Z" style="fill:white"></path>
<path d="M1924.37,447.29V5.74h74.2V447.29Z" style="fill:white"></path>
<path d="M386.17,129.55,271.64,177A686.81,686.81,0,0,0,396.18,447.37H559.43A567.45,567.45,0,0,1,386.17,129.55Z" style="fill:white"></path>
<path d="M698.93,0,577.69,50.22A566.86,566.86,0,0,1,396.18,447.37H559.43a687,687,0,0,0,140.23-417C699.66,20.17,699.42,10.09,698.93,0Z" style="fill:white"></path>
<path d="M112.26,243,0,289.51A687.91,687.91,0,0,0,89.81,447.37H253.06A568.66,568.66,0,0,1,112.26,243Z" style="fill:white"></path>
<path d="M386.17,129.55l-136,56.35A567.67,567.67,0,0,1,89.81,447.37H253.06A686.54,686.54,0,0,0,386.2,129.51Z" style="fill:white">
</path>
</svg>